# xmcd CD database file
#
# Track frame offsets:
#	150
#	18097
#	37210
#	51975
#
# Disc length: 1023 seconds
#
# Revision: 1
# Processed by: cddbd v1.5.2PL0 Copyright (c) Steve Scherf et al.
# Submitted via: CDex 1.70beta3
#
DISCID=2e03fd04
DTITLE=ZIGGY - それゆけ! R and R Band -Revisited-
DYEAR=1989
DGENRE=Hard Rock
TTITLE0=それゆけ! R and R Band
TTITLE1=I Can't Stop Dancin'
TTITLE2=Feelin' Sayisfied
TTITLE3=Burnin' Love
EXTD=YEAR: 1989
EXTT0=
EXTT1=
EXTT2=
EXTT3=
PLAYORDER=
